<?xml version="1.0" encoding="UTF-8"?>
<svg id="Layer_1" data-name="Layer 1" xmlns="http://www.w3.org/2000/svg" viewBox="0 0 505.7 560">
  <defs>
    <style>
      .cls-1 {
        fill: #74d4ff;
      }

      .cls-2 {
        fill: #0069a8;
      }
    </style>
  </defs>
  <path class="cls-1" d="M252.8,553.5c-12.36,0-24.54-3.26-35.24-9.42l-175.81-101.71c-21.74-12.51-35.25-35.9-35.25-61.03v-203c0-25.13,13.51-48.51,35.26-61.03L217.55,15.92c10.7-6.16,22.89-9.42,35.25-9.42s23.78,3.05,34.23,8.84c.35.13.7.29,1.03.48l175.9,101.7c21.74,12.52,35.25,35.9,35.25,61.03v203c0,25.12-13.51,48.51-35.26,61.03l-175.89,101.5c-10.71,6.16-22.89,9.42-35.25,9.42ZM283.3,476.4l150.05-86.58c2.92-1.7,4.75-4.87,4.75-8.27v-173.34l-154.8,89.39v178.79ZM67.5,381.45c0,3.45,1.78,6.55,4.76,8.28l150.04,86.66v-178.79l-154.8-89.39v173.24ZM252.8,244.74l154.8-89.39-150.05-86.67c-1.47-.85-3.11-1.3-4.75-1.3s-3.28.45-4.74,1.3l-150.06,86.68,154.8,89.39Z"/>
  <path class="cls-2" d="M252.8,13c11.05,0,22.1,2.85,32,8.55v-.1l175.9,101.7c19.8,11.4,32,32.5,32,55.4v203c0,22.8-12.2,44-32,55.4l-175.9,101.5c-9.9,5.7-20.95,8.55-32,8.55s-22.1-2.85-32-8.55l-175.8-101.7c-19.8-11.4-32-32.5-32-55.4v-203c0-22.8,12.2-44,32-55.4L220.8,21.55c9.9-5.7,20.95-8.55,32-8.55M252.8,252.25l167.8-96.9-159.8-92.3c-2.5-1.45-5.25-2.17-8-2.17s-5.5.72-8,2.17l-159.8,92.3,167.8,96.9M61,196.95v184.5c0,5.8,3,11,8,13.9l159.8,92.3v-193.8L61,196.95v-.1.1M276.8,487.65l159.8-92.2c5-2.9,8-8.2,8-13.9v-184.6l-167.8,96.9v193.8M252.8,0c-13.49,0-26.8,3.56-38.49,10.28L38.5,111.69C14.76,125.36,0,150.91,0,178.35v203c0,27.44,14.76,52.99,38.51,66.67l175.78,101.69c11.71,6.74,25.02,10.3,38.51,10.3s26.8-3.56,38.49-10.28l175.91-101.51c23.75-13.67,38.5-39.22,38.5-66.66v-203c0-27.44-14.76-52.99-38.51-66.67L291.31,10.2c-.49-.28-.99-.53-1.51-.75-11.32-6.19-24.08-9.45-37-9.45h0ZM110.99,155.35l140.31-81.04c.5-.29,1-.43,1.5-.43s1,.14,1.48.42l140.33,81.05-141.81,81.89-141.81-81.89h0ZM289.8,301.35l141.8-81.89v162.08c0,1.11-.57,2.1-1.52,2.65l-140.28,80.94v-163.79h0ZM215.8,465.13l-140.3-81.04c-.98-.57-1.5-1.48-1.5-2.64v-161.98l141.8,81.89v163.77h0Z"/>
</svg>